<?xml version="1.0" encoding="UTF-8"?>
<!DOCTYPE svg PUBLIC "-//W3C//DTD SVG 1.1//EN" "http://www.w3.org/Graphics/SVG/1.1/DTD/svg11.dtd">
<svg xmlns="http://www.w3.org/2000/svg" version="1.1" viewBox="0 0 29 29" stroke="none">
	<rect width="100%" height="100%" fill="#FFFFFF"/>
	<path d="M0,0h1v1h-1z M1,0h1v1h-1z M2,0h1v1h-1z M3,0h1v1h-1z M4,0h1v1h-1z M5,0h1v1h-1z M6,0h1v1h-1z M9,0h1v1h-1z M11,0h1v1h-1z M16,0h1v1h-1z M19,0h1v1h-1z M20,0h1v1h-1z M22,0h1v1h-1z M23,0h1v1h-1z M24,0h1v1h-1z M25,0h1v1h-1z M26,0h1v1h-1z M27,0h1v1h-1z M28,0h1v1h-1z M0,1h1v1h-1z M6,1h1v1h-1z M8,1h1v1h-1z M10,1h1v1h-1z M12,1h1v1h-1z M14,1h1v1h-1z M15,1h1v1h-1z M16,1h1v1h-1z M20,1h1v1h-1z M22,1h1v1h-1z M28,1h1v1h-1z M0,2h1v1h-1z M2,2h1v1h-1z M3,2h1v1h-1z M4,2h1v1h-1z M6,2h1v1h-1z M9,2h1v1h-1z M14,2h1v1h-1z M15,2h1v1h-1z M18,2h1v1h-1z M22,2h1v1h-1z M24,2h1v1h-1z M25,2h1v1h-1z M26,2h1v1h-1z M28,2h1v1h-1z M0,3h1v1h-1z M2,3h1v1h-1z M3,3h1v1h-1z M4,3h1v1h-1z M6,3h1v1h-1z M8,3h1v1h-1z M9,3h1v1h-1z M12,3h1v1h-1z M13,3h1v1h-1z M14,3h1v1h-1z M17,3h1v1h-1z M19,3h1v1h-1z M22,3h1v1h-1z M24,3h1v1h-1z M25,3h1v1h-1z M26,3h1v1h-1z M28,3h1v1h-1z M0,4h1v1h-1z M2,4h1v1h-1z M3,4h1v1h-1z M4,4h1v1h-1z M6,4h1v1h-1z M11,4h1v1h-1z M14,4h1v1h-1z M16,4h1v1h-1z M17,4h1v1h-1z M18,4h1v1h-1z M19,4h1v1h-1z M20,4h1v1h-1z M22,4h1v1h-1z M24,4h1v1h-1z M25,4h1v1h-1z M26,4h1v1h-1z M28,4h1v1h-1z M0,5h1v1h-1z M6,5h1v1h-1z M8,5h1v1h-1z M10,5h1v1h-1z M12,5h1v1h-1z M13,5h1v1h-1z M15,5h1v1h-1z M18,5h1v1h-1z M20,5h1v1h-1z M22,5h1v1h-1z M28,5h1v1h-1z M0,6h1v1h-1z M1,6h1v1h-1z M2,6h1v1h-1z M3,6h1v1h-1z M4,6h1v1h-1z M5,6h1v1h-1z M6,6h1v1h-1z M8,6h1v1h-1z M10,6h1v1h-1z M12,6h1v1h-1z M14,6h1v1h-1z M16,6h1v1h-1z M18,6h1v1h-1z M20,6h1v1h-1z M22,6h1v1h-1z M23,6h1v1h-1z M24,6h1v1h-1z M25,6h1v1h-1z M26,6h1v1h-1z M27,6h1v1h-1z M28,6h1v1h-1z M12,7h1v1h-1z M14,7h1v1h-1z M15,7h1v1h-1z M16,7h1v1h-1z M18,7h1v1h-1z M19,7h1v1h-1z M20,7h1v1h-1z M0,8h1v1h-1z M1,8h1v1h-1z M2,8h1v1h-1z M3,8h1v1h-1z M4,8h1v1h-1z M6,8h1v1h-1z M7,8h1v1h-1z M8,8h1v1h-1z M9,8h1v1h-1z M10,8h1v1h-1z M13,8h1v1h-1z M15,8h1v1h-1z M16,8h1v1h-1z M17,8h1v1h-1z M21,8h1v1h-1z M23,8h1v1h-1z M25,8h1v1h-1z M27,8h1v1h-1z M0,9h1v1h-1z M1,9h1v1h-1z M2,9h1v1h-1z M3,9h1v1h-1z M4,9h1v1h-1z M8,9h1v1h-1z M9,9h1v1h-1z M11,9h1v1h-1z M13,9h1v1h-1z M16,9h1v1h-1z M19,9h1v1h-1z M20,9h1v1h-1z M21,9h1v1h-1z M22,9h1v1h-1z M23,9h1v1h-1z M24,9h1v1h-1z M28,9h1v1h-1z M3,10h1v1h-1z M5,10h1v1h-1z M6,10h1v1h-1z M9,10h1v1h-1z M12,10h1v1h-1z M13,10h1v1h-1z M14,10h1v1h-1z M15,10h1v1h-1z M21,10h1v1h-1z M22,10h1v1h-1z M23,10h1v1h-1z M1,11h1v1h-1z M3,11h1v1h-1z M7,11h1v1h-1z M9,11h1v1h-1z M10,11h1v1h-1z M11,11h1v1h-1z M14,11h1v1h-1z M16,11h1v1h-1z M19,11h1v1h-1z M20,11h1v1h-1z M23,11h1v1h-1z M24,11h1v1h-1z M25,11h1v1h-1z M27,11h1v1h-1z M1,12h1v1h-1z M2,12h1v1h-1z M3,12h1v1h-1z M4,12h1v1h-1z M6,12h1v1h-1z M7,12h1v1h-1z M9,12h1v1h-1z M11,12h1v1h-1z M12,12h1v1h-1z M14,12h1v1h-1z M17,12h1v1h-1z M19,12h1v1h-1z M23,12h1v1h-1z M25,12h1v1h-1z M26,12h1v1h-1z M0,13h1v1h-1z M2,13h1v1h-1z M4,13h1v1h-1z M5,13h1v1h-1z M7,13h1v1h-1z M8,13h1v1h-1z M10,13h1v1h-1z M11,13h1v1h-1z M12,13h1v1h-1z M14,13h1v1h-1z M16,13h1v1h-1z M18,13h1v1h-1z M19,13h1v1h-1z M21,13h1v1h-1z M22,13h1v1h-1z M23,13h1v1h-1z M24,13h1v1h-1z M28,13h1v1h-1z M0,14h1v1h-1z M2,14h1v1h-1z M4,14h1v1h-1z M6,14h1v1h-1z M7,14h1v1h-1z M8,14h1v1h-1z M9,14h1v1h-1z M10,14h1v1h-1z M13,14h1v1h-1z M15,14h1v1h-1z M16,14h1v1h-1z M17,14h1v1h-1z M18,14h1v1h-1z M20,14h1v1h-1z M22,14h1v1h-1z M23,14h1v1h-1z M24,14h1v1h-1z M25,14h1v1h-1z M26,14h1v1h-1z M1,15h1v1h-1z M2,15h1v1h-1z M4,15h1v1h-1z M7,15h1v1h-1z M10,15h1v1h-1z M11,15h1v1h-1z M12,15h1v1h-1z M14,15h1v1h-1z M15,15h1v1h-1z M18,15h1v1h-1z M20,15h1v1h-1z M21,15h1v1h-1z M22,15h1v1h-1z M23,15h1v1h-1z M24,15h1v1h-1z M27,15h1v1h-1z M0,16h1v1h-1z M1,16h1v1h-1z M2,16h1v1h-1z M3,16h1v1h-1z M5,16h1v1h-1z M6,16h1v1h-1z M9,16h1v1h-1z M10,16h1v1h-1z M11,16h1v1h-1z M12,16h1v1h-1z M13,16h1v1h-1z M14,16h1v1h-1z M15,16h1v1h-1z M17,16h1v1h-1z M18,16h1v1h-1z M25,16h1v1h-1z M26,16h1v1h-1z M0,17h1v1h-1z M1,17h1v1h-1z M8,17h1v1h-1z M11,17h1v1h-1z M13,17h1v1h-1z M16,17h1v1h-1z M17,17h1v1h-1z M18,17h1v1h-1z M19,17h1v1h-1z M20,17h1v1h-1z M21,17h1v1h-1z M22,17h1v1h-1z M23,17h1v1h-1z M24,17h1v1h-1z M26,17h1v1h-1z M28,17h1v1h-1z M0,18h1v1h-1z M3,18h1v1h-1z M6,18h1v1h-1z M7,18h1v1h-1z M8,18h1v1h-1z M9,18h1v1h-1z M10,18h1v1h-1z M13,18h1v1h-1z M14,18h1v1h-1z M15,18h1v1h-1z M17,18h1v1h-1z M26,18h1v1h-1z M0,19h1v1h-1z M3,19h1v1h-1z M4,19h1v1h-1z M5,19h1v1h-1z M8,19h1v1h-1z M9,19h1v1h-1z M11,19h1v1h-1z M14,19h1v1h-1z M15,19h1v1h-1z M18,19h1v1h-1z M20,19h1v1h-1z M22,19h1v1h-1z M24,19h1v1h-1z M27,19h1v1h-1z M0,20h1v1h-1z M2,20h1v1h-1z M4,20h1v1h-1z M5,20h1v1h-1z M6,20h1v1h-1z M11,20h1v1h-1z M12,20h1v1h-1z M13,20h1v1h-1z M14,20h1v1h-1z M17,20h1v1h-1z M20,20h1v1h-1z M21,20h1v1h-1z M22,20h1v1h-1z M23,20h1v1h-1z M24,20h1v1h-1z M26,20h1v1h-1z M27,20h1v1h-1z M28,20h1v1h-1z M8,21h1v1h-1z M9,21h1v1h-1z M10,21h1v1h-1z M11,21h1v1h-1z M13,21h1v1h-1z M16,21h1v1h-1z M17,21h1v1h-1z M18,21h1v1h-1z M20,21h1v1h-1z M24,21h1v1h-1z M25,21h1v1h-1z M26,21h1v1h-1z M27,21h1v1h-1z M28,21h1v1h-1z M0,22h1v1h-1z M1,22h1v1h-1z M2,22h1v1h-1z M3,22h1v1h-1z M4,22h1v1h-1z M5,22h1v1h-1z M6,22h1v1h-1z M8,22h1v1h-1z M13,22h1v1h-1z M14,22h1v1h-1z M15,22h1v1h-1z M16,22h1v1h-1z M18,22h1v1h-1z M19,22h1v1h-1z M20,22h1v1h-1z M22,22h1v1h-1z M24,22h1v1h-1z M25,22h1v1h-1z M26,22h1v1h-1z M0,23h1v1h-1z M6,23h1v1h-1z M9,23h1v1h-1z M10,23h1v1h-1z M11,23h1v1h-1z M19,23h1v1h-1z M20,23h1v1h-1z M24,23h1v1h-1z M28,23h1v1h-1z M0,24h1v1h-1z M2,24h1v1h-1z M3,24h1v1h-1z M4,24h1v1h-1z M6,24h1v1h-1z M8,24h1v1h-1z M11,24h1v1h-1z M12,24h1v1h-1z M13,24h1v1h-1z M14,24h1v1h-1z M15,24h1v1h-1z M16,24h1v1h-1z M17,24h1v1h-1z M20,24h1v1h-1z M21,24h1v1h-1z M22,24h1v1h-1z M23,24h1v1h-1z M24,24h1v1h-1z M26,24h1v1h-1z M27,24h1v1h-1z M0,25h1v1h-1z M2,25h1v1h-1z M3,25h1v1h-1z M4,25h1v1h-1z M6,25h1v1h-1z M8,25h1v1h-1z M10,25h1v1h-1z M11,25h1v1h-1z M16,25h1v1h-1z M17,25h1v1h-1z M18,25h1v1h-1z M19,25h1v1h-1z M20,25h1v1h-1z M23,25h1v1h-1z M25,25h1v1h-1z M26,25h1v1h-1z M28,25h1v1h-1z M0,26h1v1h-1z M2,26h1v1h-1z M3,26h1v1h-1z M4,26h1v1h-1z M6,26h1v1h-1z M8,26h1v1h-1z M10,26h1v1h-1z M12,26h1v1h-1z M13,26h1v1h-1z M14,26h1v1h-1z M15,26h1v1h-1z M16,26h1v1h-1z M17,26h1v1h-1z M19,26h1v1h-1z M20,26h1v1h-1z M21,26h1v1h-1z M22,26h1v1h-1z M23,26h1v1h-1z M24,26h1v1h-1z M25,26h1v1h-1z M26,26h1v1h-1z M27,26h1v1h-1z M0,27h1v1h-1z M6,27h1v1h-1z M8,27h1v1h-1z M11,27h1v1h-1z M12,27h1v1h-1z M14,27h1v1h-1z M16,27h1v1h-1z M20,27h1v1h-1z M21,27h1v1h-1z M25,27h1v1h-1z M27,27h1v1h-1z M0,28h1v1h-1z M1,28h1v1h-1z M2,28h1v1h-1z M3,28h1v1h-1z M4,28h1v1h-1z M5,28h1v1h-1z M6,28h1v1h-1z M8,28h1v1h-1z M12,28h1v1h-1z M13,28h1v1h-1z M14,28h1v1h-1z M17,28h1v1h-1z M18,28h1v1h-1z M19,28h1v1h-1z M22,28h1v1h-1z M24,28h1v1h-1z M26,28h1v1h-1z" fill="#000000"/>
</svg>
